<svg xmlns="http://www.w3.org/2000/svg" width="96" height="39">
    <path fill="#73BCFF" fill-rule="evenodd" d="M83.046 29.061c0 3.553 1.584 5.329 4.128 5.329 2.112 0 3.696-.672 5.376-2.257l3.121 3.073c-2.736 2.256-5.569 3.36-8.737 3.36-5.04 0-8.305-3.36-8.305-9.313V12.356l.24-.48h-3.84V7.843h3.84l-.24-.48v-4.8l4.417-2.4v7.2l-.24.48h9.6v4.033h-9.6l.24.48v16.705zm-34.219-4.08l.528.48c.768 5.472 3.936 8.881 10.081 8.881 3.312 0 6.144-1.153 8.304-3.265l3.121 3.073c-2.928 2.88-6.865 4.416-11.473 4.416-9.985 0-14.593-6.577-14.593-15.361 0-9.265 5.28-15.842 14.401-15.842 9.553 0 14.161 6.721 14.161 15.842 0 .72-.048 1.152-.096 1.776H48.827zm19.97-4.513c-.72-5.184-3.697-8.88-9.601-8.88-6.049 0-9.025 3.84-9.793 8.88l-.528.481h20.45l-.528-.481zm-33.351-.72c0-4.8-1.488-8.16-8.448-8.16-5.089 0-9.265 2.832-9.265 8.544v17.954h-4.417V7.843h4.417v3.793h.096c2.064-2.593 5.76-4.273 9.649-4.273 7.968 0 12.385 4.081 12.385 11.425v19.298h-4.417V19.748zM4.091 38.566c-2.16 0-3.264-1.44-3.264-3.648 0-2.16 1.152-3.601 3.264-3.601 2.161 0 3.265 1.441 3.265 3.601 0 2.208-1.152 3.648-3.265 3.648z"/>
</svg>
