<svg xmlns="http://www.w3.org/2000/svg" width="444" height="52">
    <path fill="#3908AB" fill-rule="evenodd" d="M443.065 32.733h-5.424l.384.816v7.537h-8.161v-7.585l.432-.768h-21.554v-5.424L431.64 2.202h6.385v22.467l-.384.815h5.424v7.249zm-13.057-18.625h-.096l-2.16 3.024-4.992 5.664-2.977 2.592v.096h10.513l-.432-.815v-7.201l.144-3.36zm-41.664 12.865c-3.84 1.2-5.328 3.264-5.472 6.096l-.768.768h23.522v7.249h-30.819l-.096-7.825c-.048-5.904 3.264-10.945 10.945-13.393l5.28-1.68c5.233-1.632 6.529-3.216 6.529-5.088 0-2.017-1.728-4.129-6.625-4.129-3.744 0-6.96 1.344-10.321 5.281l-5.712-5.569c4.704-4.944 9.649-6.96 15.793-6.96 10.321 0 15.073 5.52 15.073 11.425 0 5.472-3.408 9.36-11.136 11.857l-6.193 1.968zm-26.778-3.649c6.384 1.585 9.697 4.177 9.697 8.737 0 5.137-4.513 9.553-13.874 9.553-5.52 0-10.512-1.872-14.977-5.713l5.137-5.184c2.544 2.688 6.24 4.224 9.697 4.224 4.608 0 5.952-1.44 5.952-2.544 0-.96-.432-1.728-3.936-2.592-.672-.144-4.753-1.248-5.425-1.392-5.184-1.296-10.513-3.408-10.513-8.929 0-5.232 4.993-9.073 13.586-9.073 5.664 0 10.128 1.68 13.585 5.041l-4.993 4.944c-2.16-2.112-5.28-3.408-8.545-3.408-4.512 0-5.568 1.536-5.568 2.4 0 1.248 1.632 1.728 5.328 2.64.625.144 4.177 1.104 4.849 1.296zm-19.227 17.762h-10.273l-14.401-15.361 14.161-14.882h9.985l-14.593 14.786v.096l15.121 15.361zM309.168.763h8.017v40.323h-8.017V.763zm-16.131 33.938c2.977 0 5.185-1.056 7.441-3.264l5.232 5.233c-3.312 3.12-7.728 4.896-12.721 4.896-10.945 0-16.177-6.817-16.177-15.409 0-8.737 5.856-15.794 16.273-15.794 5.473 0 9.505 1.776 12.481 4.753l-5.28 5.28c-2.016-2.112-4.176-3.12-7.153-3.12-5.472 0-8.304 3.84-8.304 8.929 0 4.848 2.4 8.496 8.208 8.496zm-35.567 6.865c-10.753 0-16.082-6.817-16.082-15.601 0-8.785 5.329-15.602 16.034-15.602 10.801 0 16.129 6.769 16.129 15.602 0 8.736-5.424 15.601-16.081 15.601zm0-24.29c-5.665 0-8.065 3.456-8.065 8.689 0 5.184 2.496 8.736 8.065 8.736 5.616 0 8.065-3.552 8.065-8.736 0-5.185-2.449-8.689-8.065-8.689zm-28.877 13.633c0 2.496 1.248 3.792 3.024 3.792 1.632 0 2.929-.72 4.465-2.4l4.704 4.704c-3.12 3.073-6.097 4.561-9.889 4.561-6.96 0-10.321-3.6-10.321-10.657V17.996l.384-.72h-4.416v-6.433h4.416l-.384-.72v-3.6l8.017-4.273v7.873l-.432.72h9.361v6.433h-9.361l.432.72v12.913zM202.809 18.62c8.113 1.968 12.145 6.193 12.145 11.377 0 6-5.28 11.569-17.281 11.569-6.913 0-13.585-2.16-18.482-6.865l5.665-5.664c3.984 3.6 8.592 5.28 13.105 5.28 6.384 0 8.688-2.016 8.688-4.176 0-1.248-1.104-3.168-6.192-4.416-.864-.192-6.289-1.537-7.201-1.776-6.912-1.777-13.105-4.369-13.105-10.946 0-6.192 5.905-11.28 17.042-11.28 6.96 0 12.721 2.352 16.945 6.672l-5.712 5.665c-2.689-3.073-6.817-5.089-11.329-5.089-6.337 0-8.641 2.016-8.641 3.84 0 1.633 1.776 2.641 8.065 4.225.864.24 5.376 1.392 6.288 1.584zM152.12 51.407c-2.544 0-4.704-.432-7.441-1.776v-7.249c3.121 1.632 5.041 2.16 6.673 2.16 1.632 0 3.12-.816 4.512-4.128l-14.353-29.571h8.833l7.921 16.85 1.536 4.512h.096l1.344-4.512 7.152-16.85h8.833l-14.689 33.075c-1.968 4.369-5.665 7.489-10.417 7.489zm-19.774-10.321V23.084c0-3.648-.912-5.808-6.673-5.808-4.416 0-7.441 2.16-7.441 6.144v17.666h-8.016V10.795h8.016v2.641h.096c2.065-1.873 5.377-3.073 8.737-3.073 8.017 0 13.297 4.417 13.297 11.953l-.048 18.77h-7.968zm-36.355 0V23.084c0-3.648-.912-5.808-6.673-5.808-4.416 0-7.44 2.16-7.44 6.144v17.666h-8.017V10.795h8.017v2.641h.095c2.065-1.873 5.377-3.073 8.737-3.073 8.017 0 13.297 4.417 13.297 11.953l-.048 18.77h-7.968zM44.817 29.085l.72.768c1.152 3.072 3.936 5.088 8.065 5.088 3.024 0 5.472-.912 7.872-2.88l4.849 4.896c-3.6 3.121-7.681 4.609-12.721 4.609-11.185 0-16.61-6.769-16.61-15.361 0-9.073 5.905-15.842 16.178-15.842 10.753 0 15.985 7.009 15.985 15.842 0 .768-.048 1.92-.192 2.88H44.817zm15.745-7.201c-1.104-3.168-3.552-4.944-7.392-4.944-3.937 0-6.289 1.872-7.537 4.944l-.72.768H61.33l-.768-.768zm-40.54 5.617H7.877l.768.72v12.865H.484V2.202h19.538c9.217 0 14.641 5.233 14.641 12.626 0 7.104-5.424 12.673-14.641 12.673zm0-18.002H7.877l.768.72v9.217l-.768.768h12.145c4.561 0 6.337-2.256 6.337-5.376 0-3.265-1.776-5.329-6.337-5.329z"/>
</svg>
